<svg version="1.1" xmlns="http://www.w3.org/2000/svg" xmlns:xlink="http://www.w3.org/1999/xlink" width="561.93994140625" height="509"><defs/><g><g transform="translate(-21,-22) scale(1,1)"><rect fill="#C0C0C0" stroke="none" x="167" y="87" width="90.30078125" height="87" opacity="0.2"/></g><g transform="translate(-21,-22) scale(1,1)"><rect fill="#ffffff" stroke="none" x="160" y="80" width="90.30078125" height="87"/></g><g transform="translate(-21,-22) scale(1,1)"><path fill="none" stroke="#000000" d="M 160 80 L 250.30078125 80 L 250.30078125 167 L 160 167 L 160 80 Z Z" stroke-miterlimit="10"/></g><g transform="translate(-21,-22) scale(1,1)"><path fill="none" stroke="#000000" d="M 160 105 L 250.30078125 105" stroke-miterlimit="10"/></g><g transform="translate(-21,-22) scale(1,1)"><path fill="none" stroke="#000000" d="M 160 158 L 250.30078125 158" stroke-miterlimit="10"/></g><g transform="translate(-21,-22) scale(1,1)"><g><path fill="none" stroke="none"/><text fill="#000000" stroke="none" font-family="Arial" font-size="13px" font-style="normal" font-weight="bold" text-decoration="none" x="191.4267578125" y="99.5">Limit</text></g></g><g transform="translate(-21,-22) scale(1,1)"><g><path fill="none" stroke="none"/><text fill="#000000" stroke="none" font-family="Arial" font-size="13px" font-style="normal" font-weight="normal" text-decoration="none" x="165" y="122.5">+price</text></g></g><g transform="translate(-21,-22) scale(1,1)"><g><path fill="none" stroke="none"/><text fill="#000000" stroke="none" font-family="Arial" font-size="13px" font-style="normal" font-weight="normal" text-decoration="none" x="165" y="137.5">+size</text></g></g><g transform="translate(-21,-22) scale(1,1)"><g><path fill="none" stroke="none"/><text fill="#000000" stroke="none" font-family="Arial" font-size="13px" font-style="normal" font-weight="normal" text-decoration="none" x="165" y="152.5">+total volume</text></g></g><g transform="translate(-21,-22) scale(1,1)"><rect fill="#C0C0C0" stroke="none" x="391" y="87" width="104.03076171875" height="147" opacity="0.2"/></g><g transform="translate(-21,-22) scale(1,1)"><rect fill="#ffffff" stroke="none" x="384" y="80" width="104.03076171875" height="147"/></g><g transform="translate(-21,-22) scale(1,1)"><path fill="none" stroke="#000000" d="M 384 80 L 488.03076171875 80 L 488.03076171875 227 L 384 227 L 384 80 Z Z" stroke-miterlimit="10"/></g><g transform="translate(-21,-22) scale(1,1)"><path fill="none" stroke="#000000" d="M 384 105 L 488.03076171875 105" stroke-miterlimit="10"/></g><g transform="translate(-21,-22) scale(1,1)"><path fill="none" stroke="#000000" d="M 384 218 L 488.03076171875 218" stroke-miterlimit="10"/></g><g transform="translate(-21,-22) scale(1,1)"><g><path fill="none" stroke="none"/><text fill="#000000" stroke="none" font-family="Arial" font-size="13px" font-style="normal" font-weight="bold" text-decoration="none" x="419.400390625" y="99.5">Order</text></g></g><g transform="translate(-21,-22) scale(1,1)"><g><path fill="none" stroke="none"/><text fill="#000000" stroke="none" font-family="Arial" font-size="13px" font-style="normal" font-weight="normal" text-decoration="none" x="389" y="122.5">+order ID</text></g></g><g transform="translate(-21,-22) scale(1,1)"><g><path fill="none" stroke="none"/><text fill="#000000" stroke="none" font-family="Arial" font-size="13px" font-style="normal" font-weight="normal" text-decoration="none" x="389" y="137.5">+side</text></g></g><g transform="translate(-21,-22) scale(1,1)"><g><path fill="none" stroke="none"/><text fill="#000000" stroke="none" font-family="Arial" font-size="13px" font-style="normal" font-weight="normal" text-decoration="none" x="389" y="152.5">+size</text></g></g><g transform="translate(-21,-22) scale(1,1)"><g><path fill="none" stroke="none"/><text fill="#000000" stroke="none" font-family="Arial" font-size="13px" font-style="normal" font-weight="normal" text-decoration="none" x="389" y="167.5">+price</text></g></g><g transform="translate(-21,-22) scale(1,1)"><g><path fill="none" stroke="none"/><text fill="#000000" stroke="none" font-family="Arial" font-size="13px" font-style="normal" font-weight="normal" text-decoration="none" x="389" y="182.5">+arrival time</text></g></g><g transform="translate(-21,-22) scale(1,1)"><g><path fill="none" stroke="none"/><text fill="#000000" stroke="none" font-family="Arial" font-size="13px" font-style="normal" font-weight="normal" text-decoration="none" x="389" y="197.5">+execution time</text></g></g><g transform="translate(-21,-22) scale(1,1)"><g><path fill="none" stroke="none"/><text fill="#000000" stroke="none" font-family="Arial" font-size="13px" font-style="normal" font-weight="normal" text-decoration="none" x="389" y="212.5">+event time</text></g></g><g transform="translate(-21,-22) scale(1,1)"><rect fill="#C0C0C0" stroke="none" x="87" y="351" width="170.49072265625" height="177" opacity="0.2"/></g><g transform="translate(-21,-22) scale(1,1)"><rect fill="#ffffff" stroke="none" x="80" y="344" width="170.49072265625" height="177"/></g><g transform="translate(-21,-22) scale(1,1)"><path fill="none" stroke="#000000" d="M 80 344 L 250.49072265625 344 L 250.49072265625 521 L 80 521 L 80 344 Z Z" stroke-miterlimit="10"/></g><g transform="translate(-21,-22) scale(1,1)"><path fill="none" stroke="#000000" d="M 80 369 L 250.49072265625 369" stroke-miterlimit="10"/></g><g transform="translate(-21,-22) scale(1,1)"><path fill="none" stroke="#000000" d="M 80 379 L 250.49072265625 379" stroke-miterlimit="10"/></g><g transform="translate(-21,-22) scale(1,1)"><g><path fill="none" stroke="none"/><text fill="#000000" stroke="none" font-family="Arial" font-size="13px" font-style="normal" font-weight="bold" text-decoration="none" x="116.4794921875" y="363.5">Limit Order Book</text></g></g><g transform="translate(-21,-22) scale(1,1)"><g><path fill="none" stroke="none"/><text fill="#000000" stroke="none" font-family="Arial" font-size="13px" font-style="normal" font-weight="normal" text-decoration="none" x="85" y="396.5">+add order(side, size, price)</text></g></g><g transform="translate(-21,-22) scale(1,1)"><g><path fill="none" stroke="none"/><text fill="#000000" stroke="none" font-family="Arial" font-size="13px" font-style="normal" font-weight="normal" text-decoration="none" x="85" y="411.5">+cancel order(order ID)</text></g></g><g transform="translate(-21,-22) scale(1,1)"><g><path fill="none" stroke="none"/><text fill="#000000" stroke="none" font-family="Arial" font-size="13px" font-style="normal" font-weight="normal" text-decoration="none" x="85" y="426.5">+market order(side, size)</text></g></g><g transform="translate(-21,-22) scale(1,1)"><g><path fill="none" stroke="none"/><text fill="#000000" stroke="none" font-family="Arial" font-size="13px" font-style="normal" font-weight="normal" text-decoration="none" x="85" y="441.5">+volume at limit(price)</text></g></g><g transform="translate(-21,-22) scale(1,1)"><g><path fill="none" stroke="none"/><text fill="#000000" stroke="none" font-family="Arial" font-size="13px" font-style="normal" font-weight="normal" text-decoration="none" x="85" y="456.5">+volume on(side)</text></g></g><g transform="translate(-21,-22) scale(1,1)"><g><path fill="none" stroke="none"/><text fill="#000000" stroke="none" font-family="Arial" font-size="13px" font-style="normal" font-weight="normal" text-decoration="none" x="85" y="471.5">+best bid()</text></g></g><g transform="translate(-21,-22) scale(1,1)"><g><path fill="none" stroke="none"/><text fill="#000000" stroke="none" font-family="Arial" font-size="13px" font-style="normal" font-weight="normal" text-decoration="none" x="85" y="486.5">+best offer()</text></g></g><g transform="translate(-21,-22) scale(1,1)"><g><path fill="none" stroke="none"/><text fill="#000000" stroke="none" font-family="Arial" font-size="13px" font-style="normal" font-weight="normal" text-decoration="none" x="85" y="501.5">+midpoint()</text></g></g><g transform="translate(-21,-22) scale(1,1)"><g><path fill="none" stroke="none"/><text fill="#000000" stroke="none" font-family="Arial" font-size="13px" font-style="normal" font-weight="normal" text-decoration="none" x="85" y="516.5">+spread()</text></g></g><g transform="translate(-21,-22) scale(1,1)"><path fill="none" stroke="#000000" d="M 240 80 L 240 59 L 112 59 L 112 96 L 160 96" stroke-miterlimit="10"/></g><g transform="translate(-21,-22) scale(1,1)"><path fill="#000000" stroke="none" d="M 149.83732514237585 100.20951775601598 L 160 96 L 149.83732514237585 91.79048224398402 L 138 96"/></g><g transform="translate(-21,-22) scale(1,1)"><path fill="none" stroke="#000000" d="M 149.83732514237585 100.20951775601598 L 160 96 L 149.83732514237585 91.79048224398402 L 138 96 L 149.83732514237585 100.20951775601598" stroke-miterlimit="10"/></g><g transform="translate(-21,-22) scale(1,1)"><g><path fill="none" stroke="none"/><text fill="#000000" stroke="none" font-family="Arial" font-size="13px" font-style="normal" font-weight="normal" text-decoration="none" x="73.1181640625" y="44.5">+parent; child left; child right</text></g></g><g transform="translate(-21,-22) scale(1,1)"><g><path fill="none" stroke="none"/><text fill="#000000" stroke="none" font-family="Arial" font-size="13px" font-style="normal" font-weight="normal" text-decoration="none" x="205.5" y="76.5">0..1</text></g></g><g transform="translate(-21,-22) scale(1,1)"><g><path fill="none" stroke="none"/><text fill="#000000" stroke="none" font-family="Arial" font-size="13px" font-style="normal" font-weight="normal" text-decoration="none" x="127.5" y="114.5">0..1</text></g></g><g transform="translate(-21,-22) scale(1,1)"><path fill="none" stroke="#000000" d="M 250 104 L 384 104" stroke-miterlimit="10"/></g><g transform="translate(-21,-22) scale(1,1)"><path fill="#000000" stroke="none" d="M 260.16267485762415 99.79048224398402 L 250 104 L 260.16267485762415 108.20951775601598 L 272 104"/></g><g transform="translate(-21,-22) scale(1,1)"><path fill="none" stroke="#000000" d="M 260.16267485762415 99.79048224398402 L 250 104 L 260.16267485762415 108.20951775601598 L 272 104 L 260.16267485762415 99.79048224398402" stroke-miterlimit="10"/></g><g transform="translate(-21,-22) scale(1,1)"><g><path fill="none" stroke="none"/><text fill="#000000" stroke="none" font-family="Arial" font-size="13px" font-style="normal" font-weight="normal" text-decoration="none" x="286.5" y="95.5">+head; tail</text></g></g><g transform="translate(-21,-22) scale(1,1)"><g><path fill="none" stroke="none"/><text fill="#000000" stroke="none" font-family="Arial" font-size="13px" font-style="normal" font-weight="normal" text-decoration="none" x="267.5" y="122.5">1</text></g></g><g transform="translate(-21,-22) scale(1,1)"><g><path fill="none" stroke="none"/><text fill="#000000" stroke="none" font-family="Arial" font-size="13px" font-style="normal" font-weight="normal" text-decoration="none" x="358.5" y="122.5">1</text></g></g><g transform="translate(-21,-22) scale(1,1)"><path fill="none" stroke="#000000" d="M 400 80 L 400 59 L 528 59 L 528 153 L 488 153" stroke-miterlimit="10"/></g><g transform="translate(-21,-22) scale(1,1)"><path fill="#000000" stroke="none" d="M 498.16267485762415 148.790482243984 L 488 153 L 498.16267485762415 157.209517756016 L 510 153"/></g><g transform="translate(-21,-22) scale(1,1)"><path fill="none" stroke="#000000" d="M 498.16267485762415 148.790482243984 L 488 153 L 498.16267485762415 157.209517756016 L 510 153 L 498.16267485762415 148.790482243984" stroke-miterlimit="10"/></g><g transform="translate(-21,-22) scale(1,1)"><g><path fill="none" stroke="none"/><text fill="#000000" stroke="none" font-family="Arial" font-size="13px" font-style="normal" font-weight="normal" text-decoration="none" x="399.5" y="50.5">+next; last</text></g></g><g transform="translate(-21,-22) scale(1,1)"><g><path fill="none" stroke="none"/><text fill="#000000" stroke="none" font-family="Arial" font-size="13px" font-style="normal" font-weight="normal" text-decoration="none" x="405.5" y="75.5">0..1</text></g></g><g transform="translate(-21,-22) scale(1,1)"><g><path fill="none" stroke="none"/><text fill="#000000" stroke="none" font-family="Arial" font-size="13px" font-style="normal" font-weight="normal" text-decoration="none" x="498.5" y="146.5">0..1</text></g></g><g transform="translate(-21,-22) scale(1,1)"><path fill="none" stroke="#000000" d="M 240 167 L 240 344" stroke-miterlimit="10"/></g><g transform="translate(-21,-22) scale(1,1)"><path fill="#000000" stroke="none" d="M 235.790482243984 333.83732514237585 L 240 344 L 244.209517756016 333.83732514237585 L 240 322"/></g><g transform="translate(-21,-22) scale(1,1)"><path fill="none" stroke="#000000" d="M 235.790482243984 333.83732514237585 L 240 344 L 244.209517756016 333.83732514237585 L 240 322 L 235.790482243984 333.83732514237585" stroke-miterlimit="10"/></g><g transform="translate(-21,-22) scale(1,1)"><g><path fill="none" stroke="none"/><text fill="#000000" stroke="none" font-family="Arial" font-size="13px" font-style="normal" font-weight="normal" text-decoration="none" x="252.917236328125" y="268.5">#sell tree; lowest sell; buy tree; highest buy</text></g></g><g transform="translate(-21,-22) scale(1,1)"><g><path fill="none" stroke="none"/><text fill="#000000" stroke="none" font-family="Arial" font-size="13px" font-style="normal" font-weight="normal" text-decoration="none" x="223.5" y="194.5">1</text></g></g><g transform="translate(-21,-22) scale(1,1)"><g><path fill="none" stroke="none"/><text fill="#000000" stroke="none" font-family="Arial" font-size="13px" font-style="normal" font-weight="normal" text-decoration="none" x="223.5" y="328.5">1</text></g></g><g transform="translate(-21,-22) scale(1,1)"><rect fill="#C0C0C0" stroke="none" x="103" y="239" width="116.39599609375" height="57" opacity="0.2"/></g><g transform="translate(-21,-22) scale(1,1)"><rect fill="#ffffff" stroke="none" x="96" y="232" width="116.39599609375" height="57"/></g><g transform="translate(-21,-22) scale(1,1)"><path fill="none" stroke="#000000" d="M 96 232 L 212.39599609375 232 L 212.39599609375 289 L 96 289 L 96 232 Z Z" stroke-miterlimit="10"/></g><g transform="translate(-21,-22) scale(1,1)"><path fill="none" stroke="#000000" d="M 96 257 L 212.39599609375 257" stroke-miterlimit="10"/></g><g transform="translate(-21,-22) scale(1,1)"><path fill="none" stroke="#000000" d="M 96 280 L 212.39599609375 280" stroke-miterlimit="10"/></g><g transform="translate(-21,-22) scale(1,1)"><g><path fill="none" stroke="none"/><text fill="#000000" stroke="none" font-family="Arial" font-size="13px" font-style="normal" font-weight="bold" text-decoration="none" x="104.22607421875" y="251.5">Price–Limit Tuple</text></g></g><g transform="translate(-21,-22) scale(1,1)"><g><path fill="none" stroke="none"/><text fill="#000000" stroke="none" font-family="Arial" font-size="13px" font-style="normal" font-weight="normal" text-decoration="none" x="101" y="274.5">+price</text></g></g><g transform="translate(-21,-22) scale(1,1)"><rect fill="#C0C0C0" stroke="none" x="367" y="359" width="137.34326171875" height="57" opacity="0.2"/></g><g transform="translate(-21,-22) scale(1,1)"><rect fill="#ffffff" stroke="none" x="360" y="352" width="137.34326171875" height="57"/></g><g transform="translate(-21,-22) scale(1,1)"><path fill="none" stroke="#000000" d="M 360 352 L 497.34326171875 352 L 497.34326171875 409 L 360 409 L 360 352 Z Z" stroke-miterlimit="10"/></g><g transform="translate(-21,-22) scale(1,1)"><path fill="none" stroke="#000000" d="M 360 377 L 497.34326171875 377" stroke-miterlimit="10"/></g><g transform="translate(-21,-22) scale(1,1)"><path fill="none" stroke="#000000" d="M 360 400 L 497.34326171875 400" stroke-miterlimit="10"/></g><g transform="translate(-21,-22) scale(1,1)"><g><path fill="none" stroke="none"/><text fill="#000000" stroke="none" font-family="Arial" font-size="13px" font-style="normal" font-weight="bold" text-decoration="none" x="367.50244140625" y="371.5">OrderID–Order Tuple</text></g></g><g transform="translate(-21,-22) scale(1,1)"><g><path fill="none" stroke="none"/><text fill="#000000" stroke="none" font-family="Arial" font-size="13px" font-style="normal" font-weight="normal" text-decoration="none" x="365" y="394.5">+order ID</text></g></g><g transform="translate(-21,-22) scale(1,1)"><path fill="none" stroke="#000000" d="M 176 167 L 176 232" stroke-miterlimit="10"/></g><g transform="translate(-21,-22) scale(1,1)"><path fill="#FFFFFF" stroke="none" d="M 171.790482243984 221.83732514237585 L 176 232 L 180.209517756016 221.83732514237585 L 176 210"/></g><g transform="translate(-21,-22) scale(1,1)"><path fill="none" stroke="#000000" d="M 171.790482243984 221.83732514237585 L 176 232 L 180.209517756016 221.83732514237585 L 176 210 L 171.790482243984 221.83732514237585" stroke-miterlimit="10"/></g><g transform="translate(-21,-22) scale(1,1)"><g><path fill="none" stroke="none"/><text fill="#000000" stroke="none" font-family="Arial" font-size="13px" font-style="normal" font-weight="normal" text-decoration="none" x="135.0966796875" y="203.5">+limit</text></g></g><g transform="translate(-21,-22) scale(1,1)"><g><path fill="none" stroke="none"/><text fill="#000000" stroke="none" font-family="Arial" font-size="13px" font-style="normal" font-weight="normal" text-decoration="none" x="159.5" y="188.5">1</text></g></g><g transform="translate(-21,-22) scale(1,1)"><g><path fill="none" stroke="none"/><text fill="#000000" stroke="none" font-family="Arial" font-size="13px" font-style="normal" font-weight="normal" text-decoration="none" x="159.5" y="227.5">1</text></g></g><g transform="translate(-21,-22) scale(1,1)"><path fill="none" stroke="#000000" d="M 176 289 L 176 344" stroke-miterlimit="10"/></g><g transform="translate(-21,-22) scale(1,1)"><path fill="#000000" stroke="none" d="M 171.790482243984 333.83732514237585 L 176 344 L 180.209517756016 333.83732514237585 L 176 322"/></g><g transform="translate(-21,-22) scale(1,1)"><path fill="none" stroke="#000000" d="M 171.790482243984 333.83732514237585 L 176 344 L 180.209517756016 333.83732514237585 L 176 322 L 171.790482243984 333.83732514237585" stroke-miterlimit="10"/></g><g transform="translate(-21,-22) scale(1,1)"><g><path fill="none" stroke="none"/><text fill="#000000" stroke="none" font-family="Arial" font-size="13px" font-style="normal" font-weight="normal" text-decoration="none" x="34.299072265625" y="319.5">#sell limits; buy limits</text></g></g><g transform="translate(-21,-22) scale(1,1)"><g><path fill="none" stroke="none"/><text fill="#000000" stroke="none" font-family="Arial" font-size="13px" font-style="normal" font-weight="normal" text-decoration="none" x="160.220458984375" y="308.5">*</text></g></g><g transform="translate(-21,-22) scale(1,1)"><g><path fill="none" stroke="none"/><text fill="#000000" stroke="none" font-family="Arial" font-size="13px" font-style="normal" font-weight="normal" text-decoration="none" x="159.5" y="339.5">1</text></g></g><g transform="translate(-21,-22) scale(1,1)"><path fill="none" stroke="#000000" d="M 360 384 L 250 384" stroke-miterlimit="10"/></g><g transform="translate(-21,-22) scale(1,1)"><path fill="#000000" stroke="none" d="M 260.16267485762415 379.790482243984 L 250 384 L 260.16267485762415 388.209517756016 L 272 384"/></g><g transform="translate(-21,-22) scale(1,1)"><path fill="none" stroke="#000000" d="M 260.16267485762415 379.790482243984 L 250 384 L 260.16267485762415 388.209517756016 L 272 384 L 260.16267485762415 379.790482243984" stroke-miterlimit="10"/></g><g transform="translate(-21,-22) scale(1,1)"><g><path fill="none" stroke="none"/><text fill="#000000" stroke="none" font-family="Arial" font-size="13px" font-style="normal" font-weight="normal" text-decoration="none" x="280.680908203125" y="404.5">#orders</text></g></g><g transform="translate(-21,-22) scale(1,1)"><g><path fill="none" stroke="none"/><text fill="#000000" stroke="none" font-family="Arial" font-size="13px" font-style="normal" font-weight="normal" text-decoration="none" x="335.220458984375" y="377.5">*</text></g></g><g transform="translate(-21,-22) scale(1,1)"><g><path fill="none" stroke="none"/><text fill="#000000" stroke="none" font-family="Arial" font-size="13px" font-style="normal" font-weight="normal" text-decoration="none" x="267.5" y="377.5">1</text></g></g><g transform="translate(-21,-22) scale(1,1)"><path fill="none" stroke="#000000" d="M 488 208 L 528 208 L 528 384 L 497 384" stroke-miterlimit="10"/></g><g transform="translate(-21,-22) scale(1,1)"><path fill="#FFFFFF" stroke="none" d="M 507.16267485762415 379.790482243984 L 497 384 L 507.16267485762415 388.209517756016 L 519 384"/></g><g transform="translate(-21,-22) scale(1,1)"><path fill="none" stroke="#000000" d="M 507.16267485762415 379.790482243984 L 497 384 L 507.16267485762415 388.209517756016 L 519 384 L 507.16267485762415 379.790482243984" stroke-miterlimit="10"/></g><g transform="translate(-21,-22) scale(1,1)"><g><path fill="none" stroke="none"/><text fill="#000000" stroke="none" font-family="Arial" font-size="13px" font-style="normal" font-weight="normal" text-decoration="none" x="535.5" y="301.5">+order</text></g></g><g transform="translate(-21,-22) scale(1,1)"><g><path fill="none" stroke="none"/><text fill="#000000" stroke="none" font-family="Arial" font-size="13px" font-style="normal" font-weight="normal" text-decoration="none" x="505.5" y="226.5">1</text></g></g><g transform="translate(-21,-22) scale(1,1)"><g><path fill="none" stroke="none"/><text fill="#000000" stroke="none" font-family="Arial" font-size="13px" font-style="normal" font-weight="normal" text-decoration="none" x="514.5" y="377.5">1</text></g></g><g transform="translate(-21,-22) scale(1,1)"><path fill="none" stroke="#000000" d="M 250 146 L 384 146" stroke-miterlimit="10"/></g><g transform="translate(-21,-22) scale(1,1)"><path fill="#FFFFFF" stroke="none" d="M 373.83732514237585 150.209517756016 L 384 146 L 373.83732514237585 141.790482243984 L 362 146"/></g><g transform="translate(-21,-22) scale(1,1)"><path fill="none" stroke="#000000" d="M 373.83732514237585 150.209517756016 L 384 146 L 373.83732514237585 141.790482243984 L 362 146 L 373.83732514237585 150.209517756016" stroke-miterlimit="10"/></g><g transform="translate(-21,-22) scale(1,1)"><g><path fill="none" stroke="none"/><text fill="#000000" stroke="none" font-family="Arial" font-size="13px" font-style="normal" font-weight="normal" text-decoration="none" x="293.5" y="164.5">+parent</text></g></g><g transform="translate(-21,-22) scale(1,1)"><g><path fill="none" stroke="none"/><text fill="#000000" stroke="none" font-family="Arial" font-size="13px" font-style="normal" font-weight="normal" text-decoration="none" x="267.5" y="164.5">1</text></g></g><g transform="translate(-21,-22) scale(1,1)"><g><path fill="none" stroke="none"/><text fill="#000000" stroke="none" font-family="Arial" font-size="13px" font-style="normal" font-weight="normal" text-decoration="none" x="359.220458984375" y="164.5">*</text></g></g></g></svg>